<svg viewBox="-72 0 480 480" xmlns="http://www.w3.org/2000/svg">
    <path d="m104 8v96h-96v160l56 56 48-48 56 48 56-48 48 48 56-56v-256zm176 208h-224v-80h224zm0 0" fill="#9bc9ff"/>
    <g fill="#1e81ce">
        <path d="m336 480h-336v-195.3125l64 64 47.585938-47.582031 56.414062 48.359375 56.414062-48.359375 47.585938 47.582031 64-64zm-320-16h304v-140.6875l-48 48-48.414062-48.417969-55.585938 47.640625-55.585938-47.640625-48.414062 48.417969-48-48zm0 0"/>
        <path d="m100.6875 0-100.6875 100.6875v166.625l64 64 48.414062-48.417969 55.585938 47.640625 55.585938-47.640625 48.414062 48.417969 64-64v-267.3125zm-4.6875 27.3125v68.6875h-68.6875zm224 233.375-48 48-47.585938-47.582031-56.414062 48.359375-56.414062-48.359375-47.585938 47.582031-48-48v-148.6875h96v-96h208zm0 0"/>
        <path d="m128 64h16v16h-16zm0 0"/>
        <path d="m160 64h128v16h-128zm0 0"/>
        <path d="m128 96h16v16h-16zm0 0"/>
        <path d="m160 96h128v16h-128zm0 0"/>
        <path d="m64 392h208v16h-208zm0 0"/>
        <path d="m64 424h208v16h-208zm0 0"/>
        <path d="m288 224h-240v-96h240zm-224-16h208v-64h-208zm0 0"/>
    </g>
</svg>